<?xml version="1.0" encoding="UTF-8"?>
<svg version="1.1" xmlns="http://www.w3.org/2000/svg" width="53" height="47">
<path d="M0 0 C17.49 0 34.98 0 53 0 C53 15.51 53 31.02 53 47 C35.51 47 18.02 47 0 47 C0 31.49 0 15.98 0 0 Z " fill="#03978A" transform="translate(0,0)"/>
<path d="M0 0 C0.99 0.33 1.98 0.66 3 1 C3.89135742 2.94946289 3.89135742 2.94946289 4.60546875 5.47265625 C4.86650391 6.37177734 5.12753906 7.27089844 5.39648438 8.19726562 C5.65751953 9.14279297 5.91855469 10.08832031 6.1875 11.0625 C6.46013672 12.01189453 6.73277344 12.96128906 7.01367188 13.93945312 C7.68695447 16.29003623 8.34847283 18.64331147 9 21 C9.4640625 19.2984375 9.4640625 19.2984375 9.9375 17.5625 C11 14 11 14 12 13 C14.33297433 12.95907063 16.66705225 12.95758277 19 13 C19 13.66 19 14.32 19 15 C18.22269531 15.05027344 17.44539063 15.10054687 16.64453125 15.15234375 C13.76883549 15.7385387 13.76883549 15.7385387 12.63671875 18.50390625 C12.32347656 19.51324219 12.01023437 20.52257812 11.6875 21.5625 C11.36136719 22.57441406 11.03523438 23.58632813 10.69921875 24.62890625 C10.46847656 25.41136719 10.23773438 26.19382812 10 27 C9.01 27 8.02 27 7 27 C6.73445313 26.05898438 6.46890625 25.11796875 6.1953125 24.1484375 C5.84210937 22.90320313 5.48890625 21.65796875 5.125 20.375 C4.77695312 19.14523438 4.42890625 17.91546875 4.0703125 16.6484375 C3.11833626 13.40337981 2.09288782 10.19989678 1 7 C0.01 9.64 -0.98 12.28 -2 15 C-4.31 15 -6.62 15 -9 15 C-9 14.34 -9 13.68 -9 13 C-7.35 12.67 -5.7 12.34 -4 12 C-2.68 8.04 -1.36 4.08 0 0 Z " fill="#E5F4F3" transform="translate(22,11)"/>
<path d="M0 0 C2.64 0 5.28 0 8 0 C7.1857959 0.80864502 6.3715918 1.61729004 5.53271484 2.45043945 C2.26247516 6.39694976 2.33429654 9.82999764 2.4765625 14.79296875 C2.48126556 15.62081375 2.48596863 16.44865875 2.49081421 17.30158997 C2.51206153 19.9310932 2.56862902 22.55854081 2.625 25.1875 C2.64151822 26.96547575 2.65586342 28.7434731 2.66796875 30.52148438 C2.48735017 38.88654716 2.48735017 38.88654716 4 47 C2.68 47 1.36 47 0 47 C0 31.49 0 15.98 0 0 Z " fill="#FCFEFD" transform="translate(0,0)"/>
<path d="M0 0 C2.97 0 5.94 0 9 0 C9 15.51 9 31.02 9 47 C8.01 47 7.02 47 6 47 C6.33 46.01 6.66 45.02 7 44 C7.13301638 41.17032882 7.21224467 38.36607967 7.23828125 35.53515625 C7.246353 34.70543808 7.25442474 33.87571991 7.26274109 33.02085876 C7.27656282 31.26661254 7.28729351 29.51233965 7.29516602 27.75805664 C7.31241435 25.07581897 7.35631991 22.39480306 7.40039062 19.71289062 C7.41051499 18.00782155 7.41903189 16.30274202 7.42578125 14.59765625 C7.44328934 13.79650894 7.46079742 12.99536163 7.47883606 12.16993713 C7.46490267 8.59413968 7.36316126 6.47635689 5.16088867 3.58764648 C3.47248511 2.3471439 1.74325026 1.16216684 0 0 Z " fill="#FCFEFE" transform="translate(44,0)"/>
<path d="M0 0 C1.134375 0.020625 2.26875 0.04125 3.4375 0.0625 C3.4375 0.7225 3.4375 1.3825 3.4375 2.0625 C2.65375 2.124375 1.87 2.18625 1.0625 2.25 C0.19625 2.518125 -0.67 2.78625 -1.5625 3.0625 C-2.93716625 5.53886012 -2.93716625 5.53886012 -3.5625 8.0625 C-4.2225 8.0625 -4.8825 8.0625 -5.5625 8.0625 C-4.54651535 0.07976343 -4.54651535 0.07976343 0 0 Z " fill="#E9F6F5" transform="translate(37.5625,23.9375)"/>
<path d="M0 0 C2.97 0 5.94 0 9 0 C9 2.31 9 4.62 9 7 C7.53515625 5.76302083 6.0703125 4.52604167 4.60546875 3.2890625 C3.1344954 2.10798901 1.56962206 1.04641471 0 0 Z " fill="#EEF8F7" transform="translate(44,0)"/>
</svg>
